<?xml version="1.0" encoding="UTF-8"?>
<svg version="1.1" xmlns="http://www.w3.org/2000/svg" width="800" height="800">
<path d="M0 0 C5.87583198 4.46337237 9.26108674 11.86028858 11.1875 18.8125 C11.53167025 21.44651263 11.790403 23.98186034 11.9375 26.625 C11.98060303 27.35259521 12.02370605 28.08019043 12.06811523 28.82983398 C12.4242368 36.95968014 11.34080339 44.77767632 10.1875 52.8125 C11.26258285 52.76810382 11.26258285 52.76810382 12.35938454 52.72281075 C35.15166261 51.81311151 57.9159411 51.66261533 80.72389936 51.6781745 C85.71661903 51.68075747 90.70933712 51.67834493 95.70205688 51.67678833 C104.06081479 51.67498594 112.41956377 51.67732405 120.77832031 51.68212891 C130.39380234 51.68759288 140.00926323 51.68578564 149.62474477 51.6803025 C157.95508007 51.6757457 166.28540905 51.67513259 174.61574519 51.67774117 C179.55941974 51.67928667 184.50308438 51.67954526 189.44675827 51.67620468 C194.0846155 51.67328741 198.72244571 51.67537145 203.36030006 51.68109894 C205.04637037 51.68240498 206.73244301 51.68206985 208.41851234 51.67983627 C219.37841692 51.66667017 230.25352478 52.05149822 241.1875 52.8125 C241.15370743 51.63491119 241.11991486 50.45732239 241.08509827 49.24404907 C240.98122051 45.52609273 240.91215293 41.8097049 240.85791016 38.09082031 C240.82801833 36.42652083 240.78728797 34.76237496 240.73486328 33.09863281 C240.37678323 21.42943584 240.88618445 11.64585079 249.26074219 2.56420898 C252.84710477 -0.81266131 256.61942415 -3.30068606 261.1875 -5.1875 C262.115625 -5.579375 263.04375 -5.97125 264 -6.375 C272.28827595 -8.48769779 279.62857302 -7.14744349 287.1875 -3.1875 C294.88033303 2.31201125 299.20813461 7.87440382 302.1875 16.8125 C302.27380926 18.27031722 302.30520981 19.73177474 302.30102539 21.19213867 C302.30094986 22.07282516 302.30087433 22.95351166 302.30079651 23.86088562 C302.29563522 24.80784805 302.29047394 25.75481049 302.28515625 26.73046875 C302.28303383 28.18904045 302.28303383 28.18904045 302.28086853 29.67707825 C302.27526817 32.78475004 302.26271562 35.89234996 302.25 39 C302.24498505 41.10611875 302.24042213 43.21223863 302.23632812 45.31835938 C302.22529862 50.48310064 302.20803375 55.64778813 302.1875 60.8125 C302.78488983 60.87118256 303.38227966 60.92986511 303.99777222 60.99032593 C311.91543236 61.81043918 311.91543236 61.81043918 315.6953125 62.9765625 C316.44772217 63.20843262 317.20013184 63.44030273 317.9753418 63.67919922 C318.746604 63.92943848 319.51786621 64.17967773 320.3125 64.4375 C321.53223511 64.82639404 321.53223511 64.82639404 322.77661133 65.22314453 C330.55880658 67.78656606 337.88347817 71.12227671 345.1875 74.8125 C345.1875 75.4725 345.1875 76.1325 345.1875 76.8125 C345.71472656 76.87695312 346.24195313 76.94140625 346.78515625 77.0078125 C350.2574536 78.17089096 352.81195037 80.41777081 355.625 82.6875 C358.66994821 85.1192538 361.62172531 87.47319411 364.96875 89.48046875 C367.76166617 91.15720187 369.23202262 93.22622346 371.1875 95.8125 C371.76628906 96.369375 372.34507812 96.92625 372.94140625 97.5 C387.61077259 112.60306934 398.06729921 132.69477617 402.57421875 153.2109375 C403.13099991 155.57282445 403.86668468 157.68352297 404.75 159.9375 C407.00622897 166.49466546 407.31706442 173.5174361 407.95361328 180.38085938 C408.17170131 182.64824641 408.42145687 184.9092198 408.68359375 187.171875 C412.52734185 221.56255491 412.49681945 256.28844491 412.07592773 290.83886719 C412.00819252 296.42837311 411.96538371 302.0177835 411.92866993 307.60756874 C411.89696781 311.97946964 411.85161853 316.35114809 411.80219078 320.72288132 C411.78064173 322.78721361 411.76348928 324.8515971 411.75101662 326.91600418 C411.731939 329.77200393 411.69417622 332.62717667 411.65161133 335.48291016 C411.64990433 336.31388718 411.64819733 337.1448642 411.6464386 338.00102234 C411.47192584 346.86101933 408.46050311 354.44383017 402.1875 360.8125 C396.33810642 365.06460155 388.54160778 368.99392116 381.1875 368.6875 C361.56871207 362.96535352 361.56871207 362.96535352 356.80078125 354.2890625 C353.19301678 346.74273566 352.05317777 340.14184016 352.08984375 331.7644043 C352.09130402 331.09623184 352.09276428 330.42805939 352.0942688 329.73963928 C352.09805431 328.29545533 352.10414897 326.85127592 352.11233521 325.40711021 C352.12530154 323.08266148 352.13166986 320.75827128 352.13647461 318.43379211 C352.14973808 312.63671901 352.17339829 306.83969867 352.19787598 301.04266357 C352.22142491 295.38652285 352.23978785 289.73040013 352.25 284.07421875 C352.25228104 282.88061548 352.25228104 282.88061548 352.25460815 281.66289902 C352.27546207 264.69880253 351.77826863 247.76485193 351.1875 230.8125 C306.25831532 229.6325943 261.32776675 229.6011938 216.38619797 229.51541888 C205.36133531 229.49419777 194.33648648 229.46783089 183.31163564 229.44125474 C163.66316765 229.3940207 144.01469322 229.35064226 124.36621094 229.30981445 C105.32063297 229.27023089 86.27506062 229.22875311 67.22949219 229.18481445 C65.45778727 229.18072804 65.45778727 229.18072804 63.65029034 229.17655908 C57.72273476 229.16287587 51.79517926 229.14915634 45.86762381 229.13541877 C-3.02573894 229.02215131 -51.91911398 228.91519387 -100.8125 228.8125 C-100.70538994 256.68011975 -100.59265202 284.54771176 -100.47316074 312.4152813 C-100.41781462 325.35383057 -100.36433036 338.2923826 -100.31518555 351.23095703 C-100.27236071 362.5044122 -100.22608706 373.77784695 -100.17562145 385.0512706 C-100.14900679 391.02387804 -100.12415339 396.99648139 -100.10342598 402.9691124 C-100.0838826 408.58489137 -100.05974577 414.20063143 -100.03200912 419.81637573 C-100.02262649 421.88282695 -100.0149556 423.94928672 -100.00908089 426.01575089 C-100.00084028 428.82645144 -99.98656943 431.63705701 -99.97071838 434.44772339 C-99.96974028 435.27456064 -99.96876217 436.10139789 -99.96775442 436.95329082 C-100.03456713 441.01428373 -100.03456713 441.01428373 -98.8125 444.8125 C-98.69434079 446.40472279 -98.63350278 448.00137469 -98.6015625 449.59765625 C-98.57537842 450.59087891 -98.54919434 451.58410156 -98.5222168 452.60742188 C-98.49426025 453.68572266 -98.46630371 454.76402344 -98.4375 455.875 C-97.67444467 478.44967324 -95.56263721 501.14111559 -86.86328125 522.17578125 C-85.97990509 524.39243146 -85.31539159 526.4859356 -84.8125 528.8125 C-84.1525 528.8125 -83.4925 528.8125 -82.8125 528.8125 C-82.4 529.699375 -81.9875 530.58625 -81.5625 531.5 C-75.06598123 543.79698195 -62.34049912 550.42770603 -49.50097656 554.55566406 C-17.88146315 563.80858638 15.30018116 563.9452985 47.96875 564.0859375 C49.82463367 564.09454898 49.82463367 564.09454898 51.71800995 564.10333443 C63.35721803 564.15475566 74.99642302 564.18603815 86.63574219 564.19335938 C93.06588591 564.19837177 99.49572541 564.22256409 105.92576599 564.25868607 C108.35296301 564.26844746 110.78020191 564.27083615 113.20741272 564.26551437 C116.57936577 564.25844478 119.9503996 564.27571062 123.32226562 564.29833984 C124.30921417 564.29016739 125.29616272 564.28199493 126.3130188 564.27357483 C135.4173061 564.38218484 141.68752733 567.66525621 148.359375 573.74609375 C153.66339867 579.74145383 156.62053296 587.47984266 156.45703125 595.4765625 C155.39411976 604.68846207 150.99041524 611.69623415 144.1875 617.8125 C139.10408568 621.51979812 134.43751467 622.93164141 128.21670532 622.95294189 C127.21435349 622.95865204 126.21200165 622.96436218 125.17927551 622.97024536 C124.08451401 622.97136322 122.9897525 622.97248108 121.86181641 622.97363281 C120.7030751 622.97859772 119.5443338 622.98356262 118.35047913 622.98867798 C114.49666753 623.00333264 110.64289747 623.01011689 106.7890625 623.015625 C105.4476761 623.01836468 104.10628993 623.02122138 102.76490402 623.02419281 C96.42808741 623.03789867 90.09128371 623.04753699 83.7544533 623.0513947 C77.24964751 623.05537917 70.74499019 623.06741609 64.24023438 623.09375 C-73.22927542 623.63832166 -73.22927542 623.63832166 -115.8125 582.8125 C-117.15441406 581.58273437 -117.15441406 581.58273437 -118.5234375 580.328125 C-126.00087324 573.24864802 -131.45129487 565.54982877 -136.8125 556.8125 C-137.37710938 555.93335938 -137.94171875 555.05421875 -138.5234375 554.1484375 C-159.2326468 519.63308866 -158.95527275 471.45629175 -158.97363281 432.4284668 C-158.97827177 430.10854007 -158.98329784 427.78861409 -158.98867798 425.46868896 C-159.00170699 419.20508974 -159.00822914 412.94150118 -159.01268864 406.67789054 C-159.01563698 402.74574187 -159.01974511 398.81359599 -159.02419281 394.88144875 C-159.03628815 383.93574374 -159.04667272 372.9900412 -159.0500679 362.04432964 C-159.05028747 361.34650194 -159.05050703 360.64867424 -159.05073325 359.92970024 C-159.05095153 359.23044846 -159.05116981 358.53119667 -159.0513947 357.81075543 C-159.05183812 356.39442615 -159.05228469 354.97809686 -159.05273438 353.56176758 C-159.0529558 352.85925831 -159.05317723 352.15674904 -159.05340537 351.43295161 C-159.0573371 340.0991299 -159.07474649 328.76537312 -159.0980939 317.43157639 C-159.12202241 305.71831982 -159.13427952 294.00509549 -159.13543582 282.29181415 C-159.13634108 275.74658585 -159.14213074 269.20143203 -159.16025543 262.6562252 C-159.48861941 136.77111017 -159.48861941 136.77111017 -116.875 93.5 C-107.68179679 84.44719569 -97.12442458 77.86732206 -85.8125 71.8125 C-84.95527344 71.34972656 -84.09804687 70.88695312 -83.21484375 70.41015625 C-73.54355624 65.6128298 -60.68649185 60.8125 -49.8125 60.8125 C-49.82821045 59.59256348 -49.8439209 58.37262695 -49.86010742 57.11572266 C-49.91478629 52.54971023 -49.94898707 47.98372621 -49.97729492 43.41748047 C-49.99229561 41.44868081 -50.01270283 39.47991407 -50.03881836 37.51123047 C-50.07558815 34.66625802 -50.09231387 31.82173087 -50.10546875 28.9765625 C-50.12095261 28.10947662 -50.13643646 27.24239075 -50.15238953 26.34902954 C-50.15442387 18.80650132 -48.88347288 11.889374 -44.625 5.5625 C-30.82498311 -7.93084985 -16.44873545 -10.23476872 0 0 Z " fill="#6D2BE6" transform="translate(244.8125,91.1875)"/>
<path d="M0 0 C0 0.66 0 1.32 0 2 C0.598125 2.26941406 1.19625 2.53882813 1.8125 2.81640625 C8.2329375 6.29032154 11.1305979 12.61577975 13.30859375 19.3046875 C15.15783698 26.51360179 13.94951665 33.22975717 11 40 C5.05560733 50.00397791 -3.33617007 54.47196803 -13.8359375 58.671875 C-28.74502148 64.93000902 -41.6623893 74.70046068 -54 85 C-54.51014648 85.41991211 -55.02029297 85.83982422 -55.54589844 86.27246094 C-64.12353774 93.36096169 -72.12902564 100.94839325 -80 108.8125 C-80.88405518 109.69574951 -81.76811035 110.57899902 -82.67895508 111.48901367 C-87.65141517 116.50396939 -92.41550393 121.62973026 -97 127 C-98.06683939 128.22341452 -99.13453187 129.44608573 -100.203125 130.66796875 C-101.21914787 131.84080128 -102.23477678 133.01397522 -103.25 134.1875 C-104.0234375 135.07211914 -104.0234375 135.07211914 -104.8125 135.97460938 C-106.9538989 138.45543103 -108.87312898 140.78566487 -110.546875 143.61328125 C-112.33168785 146.54478838 -114.55083633 148.59718149 -117 151 C-119.04191562 153.32442233 -120.99204386 155.71958907 -122.9375 158.125 C-123.77631714 159.16019775 -123.77631714 159.16019775 -124.63208008 160.21630859 C-131.36755889 168.6040977 -137.6932613 177.28818104 -144 186 C-145.02336046 187.40370201 -146.04679423 188.80735056 -147.0703125 190.2109375 C-147.98505373 191.47346685 -148.89915856 192.73645764 -149.8125 194 C-150.22717529 194.56928223 -150.64185059 195.13856445 -151.0690918 195.72509766 C-152.81162139 198.15589093 -154.04638471 200.13915413 -155 203 C-155.66 203 -156.32 203 -157 203 C-157.26683594 203.55300781 -157.53367187 204.10601563 -157.80859375 204.67578125 C-163.04149722 214.88423228 -170.16751184 226.13063283 -181.34765625 230.4140625 C-189.48785093 232.2123382 -199.70635967 232.61073739 -207 228 C-209.83135387 225.82243148 -212.44448001 223.49319024 -215 221 C-215.48525146 220.57968506 -215.97050293 220.15937012 -216.47045898 219.72631836 C-218.41906713 217.52701936 -219.20202962 215.40959901 -220.234375 212.66015625 C-220.63986572 211.6026416 -221.04535645 210.54512695 -221.46313477 209.45556641 C-221.88780029 208.33585449 -222.31246582 207.21614258 -222.75 206.0625 C-231.06709077 184.78075406 -242.42780617 167.01625942 -263.00708008 155.89135742 C-267.70789821 153.3055493 -271.83924951 150.39653264 -275 146 C-275 145.34 -275 144.68 -275 144 C-275.66 144 -276.32 144 -277 144 C-280.65623682 133.85911676 -281.79166249 126.37863819 -278 116 C-274.05492693 108.77144997 -267.39279713 101.99426118 -259.625 99.0625 C-248.16422403 95.9279288 -237.92566181 99.14300268 -227.75 104.75 C-226.49375486 105.48949182 -225.24106405 106.23530397 -224 107 C-224 107.66 -224 108.32 -224 109 C-223.30003906 109.22945312 -222.60007812 109.45890625 -221.87890625 109.6953125 C-218.42255762 111.2616903 -215.77601155 113.41019208 -212.9375 115.875 C-212.37603271 116.35751221 -211.81456543 116.84002441 -211.23608398 117.3371582 C-202.65974655 124.80408282 -194.49485356 132.61854486 -188 142 C-184.27963475 138.54349044 -181.41910632 134.64356154 -178.4375 130.5625 C-173.69236469 124.14648063 -168.72803809 118.00278895 -163.5234375 111.95703125 C-161.24380566 109.28569797 -159.0464517 106.5718744 -156.875 103.8125 C-153.46560011 99.51066006 -149.85586613 95.43204 -146.16015625 91.375 C-144.20749371 89.22813052 -142.28354101 87.06106934 -140.375 84.875 C-139.82199219 84.24335937 -139.26898437 83.61171875 -138.69921875 82.9609375 C-137.48355152 81.55802957 -136.27904183 80.14542229 -135.08203125 78.7265625 C-134.45683594 77.99179687 -133.83164062 77.25703125 -133.1875 76.5 C-132.62417969 75.8296875 -132.06085938 75.159375 -131.48046875 74.46875 C-130 73 -130 73 -128 73 C-127.6596875 72.1646875 -127.6596875 72.1646875 -127.3125 71.3125 C-125.62679817 68.34245392 -123.44382827 66.39291518 -121 64 C-119.98135749 62.97305289 -118.96449521 61.94433754 -117.94921875 60.9140625 C-107.39033778 50.2507654 -107.39033778 50.2507654 -101.95019531 45.65844727 C-100.05323101 44.04526769 -98.19010278 42.39943503 -96.328125 40.74609375 C-92.02854765 36.98018527 -87.57905452 33.43831436 -83.0625 29.9375 C-82.31548828 29.35162109 -81.56847656 28.76574219 -80.79882812 28.16210938 C-66.44046546 17 -66.44046546 17 -63 17 C-63 16.34 -63 15.68 -63 15 C-62.41734375 14.72027344 -61.8346875 14.44054687 -61.234375 14.15234375 C-56.45347688 11.81451464 -51.85551313 9.33638861 -47.3125 6.5625 C-31.45019581 -2.81534349 -17.56819133 -6.55879143 0 0 Z " fill="#6D2BE6" transform="translate(701,483)"/>
</svg>
